<svg width="390" height="844" viewBox="0 0 390 844" xmlns="http://www.w3.org/2000/svg">
  <defs>
    <linearGradient id="bgGlow" x1="0" y1="0" x2="0" y2="1">
      <stop offset="0%" stop-color="#FCF1F5"/>
      <stop offset="100%" stop-color="#FFFFFF"/>
    </linearGradient>
    
    <linearGradient id="cardPink" x1="0" y1="0" x2="0" y2="1">
      <stop offset="0%" stop-color="#FCE1E8"/>
      <stop offset="100%" stop-color="#FCF3F5"/>
    </linearGradient>
    
    <linearGradient id="cardPurple" x1="0" y1="0" x2="0" y2="1">
      <stop offset="0%" stop-color="#E2D4F0"/>
      <stop offset="100%" stop-color="#F5F0FA"/>
    </linearGradient>
  </defs>

  <rect width="390" height="844" fill="url(#bgGlow)"/>

  <circle cx="45" cy="80" r="20" fill="white" stroke="#F5DCE3" stroke-width="1"/>
  <text x="45" y="86" font-size="16" text-anchor="middle">🔔</text>

  <text x="195" y="86" font-size="20" font-weight="bold" fill="#B35D7A" text-anchor="middle" font-family="system-ui, sans-serif">Minha Saúde Feminina</text>

  <circle cx="345" cy="80" r="20" fill="white" stroke="#F5DCE3" stroke-width="1"/>
  <text x="345" y="86" font-size="16" text-anchor="middle">👤</text>


  <rect x="20" y="130" width="350" height="190" rx="24" fill="url(#cardPink)"/>
  
  <text x="40" y="175" font-size="20" font-weight="bold" fill="#6A5A62" font-family="system-ui, sans-serif">Bem-vinda de volta!</text>
  <text x="40" y="200" font-size="15" fill="#8E7C85" font-family="system-ui, sans-serif">Como podemos ajudar</text>
  <text x="40" y="222" font-size="15" fill="#8E7C85" font-family="system-ui, sans-serif">você hoje?</text>

  <rect x="220" y="145" width="130" height="155" rx="16" fill="#ECAFC3" opacity="0.2"/>
  <text x="285" y="225" font-size="12" font-weight="bold" fill="#B35D7A" text-anchor="middle" font-family="system-ui, sans-serif" opacity="0.6">Ilustração Aqui</text>


  <rect x="20" y="340" width="165" height="170" rx="20" fill="url(#cardPink)"/>
  <rect x="35" y="355" width="135" height="75" rx="12" fill="#F4BACD" opacity="0.2"/>
  <text x="102" y="400" font-size="10" fill="#B35D7A" text-anchor="middle" font-family="system-ui, sans-serif" opacity="0.6">Imagem Calendário</text>
  <text x="35" y="460" font-size="18" font-weight="bold" fill="#B35D7A" font-family="system-ui, sans-serif">Calendário</text>
  <text x="35" y="480" font-size="12" fill="#8E7C85" font-family="system-ui, sans-serif">Acompanhe seu ciclo</text>
  <text x="35" y="495" font-size="12" fill="#8E7C85" font-family="system-ui, sans-serif">menstrual</text>

  <rect x="205" y="340" width="165" height="170" rx="20" fill="url(#cardPurple)"/>
  <rect x="220" y="355" width="135" height="75" rx="12" fill="#BCA6DF" opacity="0.2"/>
  <text x="287" y="400" font-size="10" fill="#8A6EA8" text-anchor="middle" font-family="system-ui, sans-serif" opacity="0.6">Imagem Corpo</text>
  <text x="220" y="460" font-size="18" font-weight="bold" fill="#8A6EA8" font-family="system-ui, sans-serif">Saúde e Corpo</text>
  <text x="220" y="480" font-size="12" fill="#8E7C85" font-family="system-ui, sans-serif">Informações e</text>
  <text x="220" y="495" font-size="12" fill="#8E7C85" font-family="system-ui, sans-serif">cuidados com seu corpo</text>

  <rect x="20" y="530" width="165" height="170" rx="20" fill="url(#cardPink)"/>
  <rect x="35" y="545" width="135" height="75" rx="12" fill="#F4BACD" opacity="0.2"/>
  <text x="102" y="590" font-size="10" fill="#B35D7A" text-anchor="middle" font-family="system-ui, sans-serif" opacity="0.6">Imagem Bem-estar</text>
  <text x="35" y="650" font-size="18" font-weight="bold" fill="#B35D7A" font-family="system-ui, sans-serif">Bem-estar</text>
  <text x="35" y="670" font-size="12" fill="#8E7C85" font-family="system-ui, sans-serif">Dicas para sua saúde</text>
  <text x="35" y="685" font-size="12" fill="#8E7C85" font-family="system-ui, sans-serif">mental e emocional</text>

  <rect x="205" y="530" width="165" height="170" rx="20" fill="url(#cardPurple)"/>
  <rect x="220" y="545" width="135" height="75" rx="12" fill="#BCA6DF" opacity="0.2"/>
  <text x="287" y="590" font-size="10" fill="#8A6EA8" text-anchor="middle" font-family="system-ui, sans-serif" opacity="0.6">Imagem Dúvidas</text>
  <text x="220" y="650" font-size="18" font-weight="bold" fill="#8A6EA8" font-family="system-ui, sans-serif">Dúvidas</text>
  <text x="220" y="670" font-size="12" fill="#8E7C85" font-family="system-ui, sans-serif">Pergunte e saiba mais</text>
  <text x="220" y="685" font-size="12" fill="#8E7C85" font-family="system-ui, sans-serif">sobre saúde feminina</text>


  <rect x="0" y="743" width="390" height="1" fill="#EAEAEA"/>
  
  <rect x="0" y="744" width="390" height="100" fill="white"/>
  
  <text x="45" y="780" font-size="24" text-anchor="middle">🏠</text>
  <text x="45" y="805" font-size="12" font-weight="bold" fill="#B35D7A" text-anchor="middle" font-family="system-ui, sans-serif">Início</text>

  <text x="120" y="780" font-size="24" text-anchor="middle" opacity="0.4">📁</text>
  <text x="120" y="805" font-size="12" font-weight="bold" fill="#A89A9F" text-anchor="middle" font-family="system-ui, sans-serif">Áreas</text>

  <text x="195" y="780" font-size="24" text-anchor="middle" opacity="0.4">💡</text>
  <text x="195" y="805" font-size="12" font-weight="bold" fill="#A89A9F" text-anchor="middle" font-family="system-ui, sans-serif">Informes</text>

  <text x="270" y="780" font-size="24" text-anchor="middle" opacity="0.4">🤍</text>
  <text x="270" y="805" font-size="12" font-weight="bold" fill="#A89A9F" text-anchor="middle" font-family="system-ui, sans-serif">Dicas</text>

  <text x="345" y="780" font-size="24" text-anchor="middle" opacity="0.4">💬</text>
  <text x="345" y="805" font-size="12" font-weight="bold" fill="#A89A9F" text-anchor="middle" font-family="system-ui, sans-serif">Dúvidas</text>

</svg>
